<?xml version="1.0" encoding="utf-8"?>
<!-- Generator: Adobe Illustrator 16.0.0, SVG Export Plug-In . SVG Version: 6.00 Build 0)  -->
<!DOCTYPE svg PUBLIC "-//W3C//DTD SVG 1.1//EN" "http://www.w3.org/Graphics/SVG/1.1/DTD/svg11.dtd">
<svg version="1.1" id="Layer_6" xmlns="http://www.w3.org/2000/svg" xmlns:xlink="http://www.w3.org/1999/xlink" x="0px" y="0px"
	 width="100px" height="100px" viewBox="0 0 100 100" enable-background="new 0 0 100 100" xml:space="preserve">
<path d="M86.904,14.373H13.096c-1.644,0-2.98,1.338-2.98,2.98v65.293c0,1.009,0.507,1.899,1.277,2.439v0.47h1.069
	c0.205,0.044,0.416,0.071,0.634,0.071h73.809c0.218,0,0.429-0.027,0.633-0.071h0.147V85.51c1.264-0.346,2.2-1.492,2.2-2.863V17.354
	C89.885,15.711,88.548,14.373,86.904,14.373z M87.33,17.354v8.588H67.672v-9.014h19.232C87.139,16.928,87.33,17.119,87.33,17.354z
	 M87.125,83H67.672v-8.09H87.33v7.736C87.33,82.798,87.245,82.926,87.125,83z M12.67,82.646V74.91h9.226V83h-9.021
	C12.755,82.926,12.67,82.798,12.67,82.646z M43.399,52.555v8.857H24.45v-8.857H43.399z M24.45,50v-9.581h18.949V50H24.45z
	 M43.399,63.967v8.389H24.45v-8.389H43.399z M43.399,74.91V83H24.45v-8.09H43.399z M45.954,74.91h19.163V83H45.954V74.91z
	 M45.954,72.355v-8.389h19.163v8.389H45.954z M45.954,61.412v-8.857h19.163v8.857H45.954z M45.954,50v-9.581h19.163V50H45.954z
	 M45.954,37.864v-9.368h19.163v9.368H45.954z M45.954,25.941v-9.014h19.163v9.014H45.954z M43.399,25.941H24.45v-9.014h18.949
	V25.941z M43.399,28.496v9.368H24.45v-9.368H43.399z M21.896,37.864H12.67v-9.368h9.226V37.864z M21.896,40.419V50H12.67v-9.581
	H21.896z M21.896,52.555v8.857H12.67v-8.857H21.896z M21.896,63.967v8.389H12.67v-8.389H21.896z M67.672,72.355v-8.389H87.33v8.389
	H67.672z M67.672,61.412v-8.857H87.33v8.857H67.672z M67.672,50v-9.581H87.33V50H67.672z M67.672,37.864v-9.368H87.33v9.368H67.672z
	"/>
</svg>
